<?xml version="1.0" encoding="UTF-8" standalone="no"?>
<svg
   xmlns:dc="http://purl.org/dc/elements/1.1/"
   xmlns:cc="http://creativecommons.org/ns#"
   xmlns:rdf="http://www.w3.org/1999/02/22-rdf-syntax-ns#"
   xmlns:svg="http://www.w3.org/2000/svg"
   xmlns="http://www.w3.org/2000/svg"
   xmlns:sodipodi="http://sodipodi.sourceforge.net/DTD/sodipodi-0.dtd"
   xmlns:inkscape="http://www.inkscape.org/namespaces/inkscape"
   width="1000pt"
   height="1000pt"
   viewBox="0 0 1000 1000"
   version="1.1"
   id="svg5234"
   inkscape:version="0.91 r13725"
   sodipodi:docname="Team5190LogoFeb2017.svg">
  <metadata
     id="metadata5262">
    <rdf:RDF>
      <cc:Work
         rdf:about="">
        <dc:format>image/svg+xml</dc:format>
        <dc:type
           rdf:resource="http://purl.org/dc/dcmitype/StillImage" />
        <dc:title />
      </cc:Work>
    </rdf:RDF>
  </metadata>
  <defs
     id="defs5260" />
  <sodipodi:namedview
     pagecolor="#ffffff"
     bordercolor="#666666"
     borderopacity="1"
     objecttolerance="10"
     gridtolerance="10"
     guidetolerance="10"
     inkscape:pageopacity="0"
     inkscape:pageshadow="2"
     inkscape:window-width="1920"
     inkscape:window-height="1056"
     id="namedview5258"
     showgrid="false"
     inkscape:showpageshadow="false"
     borderlayer="true"
     inkscape:zoom="0.53400704"
     inkscape:cx="513.63546"
     inkscape:cy="691.04902"
     inkscape:window-x="0"
     inkscape:window-y="24"
     inkscape:window-maximized="1"
     inkscape:current-layer="g5804" />
  <g
     id="g5804"
     style="fill:none;fill-opacity:1;stroke:#000000;stroke-opacity:1;stroke-linecap:round;stroke-linejoin:round;stroke-width:8;stroke-miterlimit:4;stroke-dasharray:none">
    <path
       id="path5238"
       d="m 211.77358,175.85 c -1.34,-5.18 4.75,-6.04 8.4,-6.47 221.41775,21.1849 481.83159,81.859 636.4,219.93 36.71579,20.80507 77.14403,49.71062 92.06,80.01 29.4836,74.76178 -65.54018,166.34793 -120.16,184.23 -2.57,0.87 -5.4,-0.2 -6.74,-2.54 -6.19996,-15.74926 -0.69023,-57.22416 -23,-49.53 -191.80031,76.02778 -405.21154,160.47998 -573.91,227.4 -2.2,0.98 -4.56,1.55 -6.95,1.74 -2.64,-1.59 -3.88,-4.73 -2.48,-7.6 6.08,-16.36 12.34,-32.67 18.64,-48.95 -58.22,11.19 -116.38,22.68 -174.579998,33.97 -3.1,0.52 -6.16,1.51 -9.33,1.59 -3.06,0.07 -5.47,-3.82 -3.71,-6.46 3.43,-4.26 7.84,-7.55 12.01,-11.04 65.244798,-54.7145 136.289938,-114.5752 194.909998,-163.57 -47.49978,4.47979 -98.97358,9.461 -141.95,13.57 -6.09,-0.45 -6.18,-11.19 -0.4,-12.35 4.14,-1.4 8.1,-3.23 12.2,-4.73 71.72,-27.43 143.33,-55.15 215.03,-82.64 4.37,-2.2 8.52,3.54 5.37,7.11 -13.49,18.64 -26.56,37.61 -40.4,55.98 89.41121,-34.35703 180.71162,-69.30619 263.44,-101.38 -83.65059,-34.03758 -167.56538,-67.93936 -249.34,-101.18 -4.18,-1.5 -8.11,-3.69 -12.47,-4.6 0.37,0.3 1.1,0.92 1.47,1.22 10.05,17.37 20.48,34.51 30.61,51.82 1.65,2.99 4.34,5.84 4,9.49 0.22,3.49 -4.56,5.87 -7.11,3.32 -69.99307,-29.9917 -146.9701,-60.37925 -208.89,-85.67 -3.81,-1.55 -7.79,-2.78 -11.32,-4.9 -1.78,-1.01 -1.99,-3.04 -1.98,-4.87 1.24,-2.01 2.45,-4.09 4.37,-5.55 44.99621,5.36902 93.80085,11.80397 133.28,17 -67.3007,-58.06682 -140.49357,-121.90885 -200.489998,-173.97 -4.54,-3.39 0.02,-11.88 5.41,-9.91 63.429028,10.61767 119.286628,22.70397 177.599998,31.94 -6.78,-17.42 -13.48,-34.9 -19.99,-52.41 z"
       style="fill:#000000;fill-opacity:1;stroke:none;stroke-width:0.80000001;stroke-linecap:round;stroke-linejoin:round;stroke-miterlimit:4;stroke-dasharray:none;stroke-opacity:1"
       inkscape:connector-curvature="0"
       sodipodi:nodetypes="cccccccccccccccccccccccccccccccccccccc"
       inkscape:export-xdpi="1000"
       inkscape:export-ydpi="1000" />
    <path
       id="path5240"
       d="m 339.11358,278.28 c 48.5,43.4 97.14,86.63 145.66,129.99 7.48,6.54 14.69,13.39 22.34,19.74 1.69,1.45 3.13,3.14 4.61,4.83 -13.2,-4.64 -26.02,-10.32 -39.04,-15.42 -54.33,-21.85 -108.65,-43.69 -162.96,-65.58 10.71,-9.05 21.27,-18.28 32.17,-27.09 1.4,-1.22 3.24,-2.61 2.65,-4.73 -1.55,-13.94 -4.35,-27.75 -5.43,-41.74 z"
       style="fill:#225500;fill-opacity:1;stroke:none;stroke-width:0.80000001;stroke-linecap:round;stroke-linejoin:round;stroke-miterlimit:4;stroke-dasharray:none;stroke-opacity:1"
       inkscape:connector-curvature="0"
       inkscape:export-xdpi="1000"
       inkscape:export-ydpi="1000" />
    <path
       id="path5242"
       d="m 453.76358,288.56 c 9.05,0.39 17.98,2.11 27.01,2.79 110.93144,16.66016 229.38783,56.93263 324.44,100.41 4.01,2.11 8.96,3.7 10.71,8.34 -12.49239,5.50285 -26.40515,10.18827 -38.12,14.53 -3.42,1.52 -7.14,0.11 -10.5,-0.84 -98.66,-39.35 -197.37,-78.59 -296.02,-117.97 -5.85,-2.4 -11.87,-4.41 -17.52,-7.26 z"
       style="fill:#225500;fill-opacity:1;stroke:none;stroke-width:0.80000001;stroke-linecap:round;stroke-linejoin:round;stroke-miterlimit:4;stroke-dasharray:none;stroke-opacity:1"
       inkscape:connector-curvature="0"
       sodipodi:nodetypes="cccccccc"
       inkscape:export-xdpi="1000"
       inkscape:export-ydpi="1000" />
    <path
       id="path5244"
       d="m 449.14116,312.72076 71.75543,28.74066 -0.82042,40.6419 z"
       style="fill:#ffffff;fill-opacity:1;stroke:none;stroke-width:0.80000001;stroke-linecap:round;stroke-linejoin:round;stroke-miterlimit:4;stroke-dasharray:none;stroke-opacity:1"
       inkscape:connector-curvature="0"
       sodipodi:nodetypes="cccc"
       inkscape:export-xdpi="1000"
       inkscape:export-ydpi="1000" />
    <path
       id="path5246"
       d="m 544.43147,350.88282 c 20.90151,8.14419 41.60236,16.827 62.53384,24.90269 0.90499,4.6511 0.72723,9.40837 0.5986,14.12684 -2.18903,2.40484 -5.10678,4.61488 -5.89268,7.92987 -0.24194,17.2863 4.61226,35.50778 11.05015,49.88606 3.90791,6.30641 7.84494,12.62297 10.90977,19.40198 0.94482,1.84912 0.95857,4.19937 -0.40381,5.84627 -3.83086,1.94439 -8.46412,1.48073 -12.32547,-0.0856 -25.42504,-16.14685 -59.39266,-52.18728 -60.72566,-78.95505 12.70035,-0.34293 25.41406,-0.11541 38.11737,-0.73365 3.71154,-0.8149 3.35206,-5.45021 2.36877,-8.25355 -0.41543,-2.14816 -2.67806,-2.87105 -4.45492,-3.4608 -13.5029,-3.86456 -27.10706,-7.37624 -40.57946,-11.35846 -0.76939,-6.39008 -0.88536,-12.83202 -1.1965,-19.24659 z"
       style="fill:#225500;fill-opacity:1;stroke:none;stroke-width:0.78303653;stroke-linecap:round;stroke-linejoin:round;stroke-miterlimit:4;stroke-dasharray:none;stroke-opacity:1"
       inkscape:connector-curvature="0"
       sodipodi:nodetypes="cccccccccccccc"
       inkscape:export-xdpi="1000"
       inkscape:export-ydpi="1000" />
    <path
       id="path5248"
       d="m 633.71898,393.65412 c 0.7843,-2.1235 2.56475,-3.71393 3.89796,-5.51482 8.98772,2.81823 17.46575,6.93077 26.33795,10.09701 -8.38933,26.91003 3.30732,37.18788 8.28112,56.48347 -31.78562,-1.48384 -40.84309,-40.6978 -38.51703,-61.06566 z"
       style="fill:#ffffff;fill-opacity:1;stroke:none;stroke-width:0.85817343;stroke-linecap:round;stroke-linejoin:round;stroke-miterlimit:4;stroke-dasharray:none;stroke-opacity:1"
       inkscape:connector-curvature="0"
       sodipodi:nodetypes="ccccc"
       inkscape:export-xdpi="1000"
       inkscape:export-ydpi="1000" />
    <path
       id="path5250"
       d="m 687.7994,406.48586 c 0.98046,-1.48108 53.23551,17.07184 53.23551,21.98165 0,2.5087 -37.22272,17.84542 -42.10941,15.94912 -7.72871,-2.04709 -15.56593,-31.224 -11.1261,-37.93077 z"
       style="fill:#860406;fill-opacity:1;stroke:none;stroke-width:0.69356257;stroke-linecap:round;stroke-linejoin:round;stroke-miterlimit:4;stroke-dasharray:none;stroke-opacity:1"
       inkscape:connector-curvature="0"
       sodipodi:nodetypes="sscs"
       inkscape:export-xdpi="1000"
       inkscape:export-ydpi="1000" />
    <path
       id="path5252"
       d="m 868.98146,437.57142 c 34.36492,9.93224 49.14841,32.94928 55.2837,52.37678 15.43678,48.8809 -38.12782,108.86179 -77.07437,129.17748 C 827.09097,548.85512 774.75041,516.57987 715.87956,496.86663 Z"
       style="fill:#ffff00;fill-opacity:1;stroke:none;stroke-width:0.80000001;stroke-linecap:round;stroke-linejoin:round;stroke-miterlimit:4;stroke-dasharray:none;stroke-opacity:1"
       inkscape:connector-curvature="0"
       sodipodi:nodetypes="csccc"
       inkscape:export-xdpi="1000"
       inkscape:export-ydpi="1000" />
    <path
       id="path5254"
       d="m 886.72162,456.9644 c 1.55,4.34 -0.01,9.29 -3.05,12.61 -3.33,4.28 -8.66,8.1 -14.36,6.67 -3.43,-0.44 -5.43,-3.61 -8.44,-4.92 -8.36255,-2.20465 -14.79434,-1.81772 -15.62,-7.54 2.46906,-19.6645 37.1871,-21.65262 41.47,-6.82 z"
       style="fill:#000000;fill-opacity:1;stroke:none;stroke-width:0.80000001;stroke-linecap:round;stroke-linejoin:round;stroke-miterlimit:4;stroke-dasharray:none;stroke-opacity:1"
       inkscape:connector-curvature="0"
       sodipodi:nodetypes="cccccc"
       inkscape:export-xdpi="1000"
       inkscape:export-ydpi="1000" />
    <path
       id="path5256"
       d="m 486.83358,585.59 c 7.58,-2.68 14.86,-6.18 22.59,-8.43 -8.55,8.52 -18.14,15.93 -27.05,24.09 -49.46,43.24 -98.74,86.68 -148.26,129.87 3.18,-13.12 6.92,-26.11 10.23,-39.2 1.02,-3.1 -1.7,-5.61 -3.33,-7.91 -9.45,-10.46 -19.15,-20.7 -28.54,-31.22 58.06,-22.54 116.26,-44.74 174.36,-67.2 z"
       style="fill:#225500;fill-opacity:1;stroke:none;stroke-width:0.80000001;stroke-linecap:round;stroke-linejoin:round;stroke-miterlimit:4;stroke-dasharray:none;stroke-opacity:1"
       inkscape:connector-curvature="0"
       inkscape:export-xdpi="1000"
       inkscape:export-ydpi="1000" />
  </g>
</svg>
